<svg xmlns="http://www.w3.org/2000/svg" viewBox="0 0 256 256"><style>.st0{fill:#fcbf05}.st1{fill:#f38f1c}</style><path class="st0" d="M225.4 89.7v59.8l-15 15H45.9l-15-15V89.7h194.5z"/><path class="st1" d="M225.4 89.7v59.8l-15 15h-82.3V89.7h97.3z"/><path d="M200 86.2l-47.9 47.9H99.8L41.4 75.8l74-74L200 86.2z" fill="#fef5f5"/><path d="M200 86.2l-47.9 47.9h-23.9V14.5L200 86.2z" fill="#efe2dd"/><path d="M225.4 149.5v105.7h-29.9l-15-15H75.8l-15 15H31V149.5h194.4z" fill="#ffda2e"/><path class="st0" d="M225.4 149.5v105.7h-29.9l-15-15h-52.4v-90.7h97.3z"/><path class="st0" d="M195.5 194.4v60.8H60.9v-60.8h7.5c4.2 0 7.5-3.3 7.5-7.5v-7.5h104.7v7.5c0 4.2 3.3 7.5 7.5 7.5h7.4z"/><path class="st1" d="M188 194.4h7.5v60.8h-67.3v-75.8h52.4v7.5c-.1 4.2 3.2 7.5 7.4 7.5z"/><path d="M60.9 119.6h134.6v15H60.9v-15z" fill="#5a6d77"/><path d="M128.2 119.6h67.3v15h-67.3v-15z" fill="#475b62"/></svg>
