<svg xmlns="http://www.w3.org/2000/svg" xmlns:xlink="http://www.w3.org/1999/xlink" viewBox="0 0 256 256"><style>.st3{fill:#c1292e}.st9{fill:#9a9999}.st14{opacity:.2}.st15{fill:#8c633a}</style><defs><path id="SVGID_1_" d="M218.6 3.7H37.4C18.8 3.7 3.7 18.8 3.7 37.4v181.2c0 18.5 15.2 33.7 33.7 33.7h181.2c18.5 0 33.7-15.2 33.7-33.7V37.4c0-18.6-15.1-33.7-33.7-33.7z"/></defs><linearGradient id="SVGID_2_" gradientUnits="userSpaceOnUse" x1="128" y1="3.667" x2="128" y2="252.333"><stop offset="0" stop-color="#8cd3f6"/><stop offset="1" stop-color="#009fe3"/></linearGradient><use xlink:href="#SVGID_1_" overflow="visible" fill="url(#SVGID_2_)"/><clipPath id="SVGID_3_"><use xlink:href="#SVGID_1_" overflow="visible"/></clipPath><path opacity=".3" clip-path="url(#SVGID_3_)" fill="#fff" d="M298.3 178l-70.9-70.3-30.6 35.1L122.6 27 79 115.5 43.8 77.1l-50 110 6.5 67.1 252 23.3z"/><g id="Layer_1" clip-path="url(#SVGID_3_)"><linearGradient id="SVGID_4_" gradientUnits="userSpaceOnUse" x1="114.679" y1="217.571" x2="117.797" y2="170.019" gradientTransform="matrix(1 0 0 -1 0 258)"><stop offset=".456" stop-color="#e84145"/><stop offset=".56" stop-color="#e84043"/><stop offset=".645" stop-color="#e83c3e"/><stop offset=".723" stop-color="#d83639"/><stop offset=".797" stop-color="#c13033"/><stop offset=".869" stop-color="#a2282a"/><stop offset=".937" stop-color="#7d1e21"/><stop offset=".997" stop-color="#551517"/></linearGradient><path d="M86.9 92.4c-2 0-7.9-.3-9.9-3.4-1.6-2.4-.4-6.6 1-9.6 1-2.2 1.8-2.5 3.7-3 3.4-1 6.8-2.6 8.3-9 1.9-8 8.6-14.6 14.9-14.6.5 0 1.1 0 1.6.2 5.7 1.1 8 2.8 10 4.3 2 1.4 4.2 3.1 8.2 3.1.7 0 1.4 0 2.3-.2 5.4-.7 8.2-3.4 10.2-5.4 1.9-1.8 2.9-2.8 5.8-2.8.5 0 1.1 0 1.8.1 3.5.4 6.5 2.1 8.8 5 3.5 4.4 5.1 11.1 4.2 18-.9 7.7-1.8 11.5-2.3 13.3-.4-.3-.8-.7-1.2-1.1-3.2-2.9-8-7.4-15-7.4-1.9 0-3.8.3-5.6 1-2.1.7-4.1 1-6.2 1-3.2 0-6.1-.8-9.1-1.5-3.1-.8-6.2-1.6-9.7-1.6-7.6 0-14.4 4.2-21.8 13.6z" fill="url(#SVGID_4_)"/><path class="st3" d="M143.1 55.8c.4 0 .8 0 1.3.1 2.5.3 4.6 1.5 6.2 3.6 2.8 3.6 4.1 9.4 3.4 15.2-.3 2.7-.6 4.9-.9 6.6-3.4-2.6-7.9-5.1-13.8-5.1-2.2 0-4.6.4-6.9 1.1-1.7.6-3.3.8-5 .8-2.7 0-5.4-.7-8.2-1.4-3.2-.8-6.7-1.7-10.6-1.7-8.5 0-15.9 4.2-23.6 13.5-2.9-.3-4.6-1.1-5-1.6-.2-.3-.4-2.1 1.3-5.9.2-.3.3-.5.3-.6.2-.1.6-.2.9-.3 2.9-.8 8.8-2.6 11-11.8 1.6-6.9 7.2-11.6 11.2-11.6.3 0 .6 0 .9.1 4.8.9 6.6 2.2 8.5 3.6 2.2 1.6 5.3 3.9 10.5 3.9.9 0 1.8-.1 2.8-.2 6.7-.9 10.1-4.3 12.4-6.5 1.9-1.7 2-1.8 3.3-1.8m0-7.6c-8.6 0-7.8 7.2-16.5 8.3-.6.1-1.3.1-1.8.1-6.1 0-5.6-5.1-17.5-7.4-.8-.2-1.6-.2-2.4-.2-8.2 0-16.4 8-18.6 17.5-2.3 9.3-8.3 3.3-11.8 11.4-7.4 16.8 7.4 18.2 12.6 18.2 1.1 0 1.8-.1 1.8-.1 8-10.8 14.2-13.6 19.9-13.6 6.1 0 11.7 3.1 18.8 3.1 2.3 0 4.8-.3 7.4-1.2 1.6-.5 3.1-.8 4.5-.8 8.8 0 13.6 9.4 17 9.4 2.2 0 3.7-4.1 5.3-17.6 1.5-12.6-4.3-25.8-16.3-27.3-.9.3-1.7.2-2.4.2z"/><path d="M228.3 361.7s-8 33.3-11.6 45.2c-3.6 11.6-25 21.5-44.8 20.6-14.1-.7-19.9 1.2-21.9 9.8-2.1 8.7 1.6 6.2 1.6 6.2s6.6-3.9 11-3.6c8.5.7 6.2 2.7 14.9 1.3 8.1-1.3 7.6-3.1 7.6-3.1s-5.1 6.5-1.7 12.7c3.3 6.2 4.3 5.1 4.3 5.1s.4-8.9 9-11c8.6-2.1 12.3-6.2 12.3-6.2s12.3-5.3 19 .9c6.7 6.2 10.7 6.3 15 5.8 4.3-.5 12.5 7.8 12.5 7.8s3.4-13.2-10-18.8c-9.4-4-15.3-17.7-12.2-28.8 3.1-11.2 16.1-40 16.1-40l-21.1-3.9z" fill="#f39323" stroke="#8c633a" stroke-width="6.903" stroke-linecap="round" stroke-linejoin="round" stroke-miterlimit="10"/><path d="M267.1 386.5s-8.3 33.5-12.2 45.4c-3.7 11.6-26.2 21.6-46.9 20.7-14.8-.7-20.8 1.2-23 9.9-2.1 8.7 1.6 6.3 1.6 6.3s6.9-4 11.5-3.6c8.9.7 6.6 2.7 15.7 1.3 8.5-1.3 8-3.1 8-3.1s-5.3 6.6-1.8 12.8c3.5 6.2 4.5 5.2 4.5 5.2s.4-8.9 9.4-11c9-2.1 12.9-6.3 12.9-6.3s12.9-5.3 19.9.9c7 6.2 11.2 6.4 15.7 5.8 4.5-.5 13.1 7.8 13.1 7.8s3.5-13.3-10.4-18.9c-9.8-4-19.4-15.8-16.2-27s20.3-42.2 20.3-42.2l-22.1-4z" fill="#f39323" stroke="#8c633a" stroke-width="7.082" stroke-linecap="round" stroke-linejoin="round" stroke-miterlimit="10"/><linearGradient id="SVGID_5_" gradientUnits="userSpaceOnUse" x1="240.762" y1="73.726" x2="240.762" y2="-139.156" gradientTransform="matrix(1 0 0 -1 0 258)"><stop offset=".234" stop-color="#fff"/><stop offset="1" stop-color="#bdbdbc"/></linearGradient><path d="M393.3 232.6c-.1-.1-57.4-31.8-90.8-39.4-38.3-12.1-100.2-13.1-125.8-8.2 0 0-87.5 47.1-88.6 47.7C85.6 341 204.5 362 204.5 362s4.6 29.1 21.8 35.7c21 8 20.3-19.7 20.3-19.7s8 28.5 32.2 30.3c26.5 2.1 5-30.9 26.6-38.4 23.7-8.1 41.9-28.7 53.1-49.3 8.1-14.6 36.9-86.5 34.8-88z" fill="url(#SVGID_5_)"/><linearGradient id="SVGID_6_" gradientUnits="userSpaceOnUse" x1="124.104" y1="190.447" x2="190.3" y2="-29.145" gradientTransform="matrix(1 0 0 -1 0 258)"><stop offset=".234" stop-color="#fff"/><stop offset="1" stop-color="#bdbdbc"/></linearGradient><path d="M137.9 71.3c-25.4-8.3-54.6 14.6-54.6 29.5 0 33.7 4.9 74.2 5 132.2-.2 0-.3.1-.5.1l.5 2.1c0 4.3.2 8.7.4 13.3 0 0 1.6 5.8 2.6 9.2 1.4 5.2 8.9 4.9 9.8-.4v-.3c.6-3.8 5.2-5.4 8.1-3 2.7 2.3 5.9 4.6 8.8 6.5 3.5 2.4 8.2-.3 7.9-4.5-.2-2.7-.4-5.5-.6-8.1-.3-4 3.8-6.7 7.4-4.8 7.1 3.7 15.8 7.1 22.2 10 3.3 1.5 7.1-.9 7.1-4.6 0-4.2-.1-9-.2-12.9 0-3.7 3.8-6.2 7.2-4.6 6.5 3 15.1 6.2 21.9 8.9 3.8 1.5 7.7-2 6.7-6-1-3.7-2-7.4-2.8-10.5-1-3.7 2.4-7.1 6.1-6.2 8.3 2.1 15.8 3.5 22.6 4.5 3.4.5 6.2-2.5 5.7-5.8-1.3-8 22.4-26.8 21.2-27.7-28.9-20.3-81.2-106.6-112.5-116.9z" fill="url(#SVGID_6_)"/><linearGradient id="SVGID_7_" gradientUnits="userSpaceOnUse" x1="261.119" y1="67.813" x2="438.623" y2="67.813" gradientTransform="matrix(1 0 0 -1 0 258)"><stop offset=".234" stop-color="#fff"/><stop offset="1" stop-color="#bdbdbc"/></linearGradient><path d="M400.4 76c27.2 2.4 22.7 18.4 21 31.9s-14.4 26.4-19 36.4c1.5-5.7 19.9-7.2 23.3-2 14.9 23.4-21.4 41-2.4 37.6 16.1-2.8 21.8 23.8 6.2 57.6-30.4 65.7-60.2 64.7-71.7 66.7-10.4 1.8-20.8-4.2-27-12-11.5-14.2-52.3-16.6-63.5-31.3-9.4-12.2-6.3-55.8 0-70.3C301.8 111 373.1 73.6 400.4 76z" fill="url(#SVGID_7_)"/><path class="st9" d="M126.6 77.2c3.1 0 6.1.5 9 1.4 15.8 5.2 40.7 36.1 62.6 63.4 15 18.7 29.3 36.4 41.3 47.1 1.3 1.1 2.8 1.8 4.5 1.9 8.3.6 16.5 1.5 24.1 2.6.4 0 .7.1 1.1.1 2.9 0 5.6-1.7 6.9-4.4 32.7-70.4 95.7-105.8 121.7-105.8.6 0 1.3 0 1.9.1 7 .6 11.8 2.3 13.8 4.8 2.5 3.1 1.6 9.3.8 15.4-.2 1.1-.3 2.1-.4 3.2-.9 7-6.2 14.9-10.9 21.8-2.6 3.8-5 7.4-6.8 10.9-1.8 3.5-.6 7.9 2.8 10 1.3.8 2.6 1.1 4 1.1 2.2 0 4.4-1 5.9-2.7.8-.5 3.5-1.3 6.9-1.3 2 0 3.3.3 3.9.5 4.6 8.2.4 15-5.2 22.5-2.9 3.9-6.2 8.3-3.6 13.4.9 1.8 3.2 4.8 8.8 4.8 1.3 0 2.9-.2 5-.5.3-.1.6-.1 1-.1.6 0 1.8 0 3 2 4.3 6.7 3.6 24.3-6 45-25.2 54.4-49.2 59.4-57.1 61-2.4.5-4.5 2.2-5.5 4.4-4.6 10.6-7 15.4-8.1 17.5-12.3 22.6-30.2 39.3-48.9 45.7-15 5.1-15.9 18.8-16.5 27.9-.7 10.2-1.2 10.2-5.4 10.2-.5 0-1.1 0-1.7-.1-18.4-1.4-25.4-24.6-25.4-24.8-1-3.3-4-5.5-7.3-5.5-.4 0-.8 0-1.1.1-3.8.6-6.6 3.9-6.5 7.7.1 3.6-.9 10-3.3 12.4-.5.5-1.1.9-2.4.9-1.1 0-2.6-.3-4.3-1-10.7-4.1-15.9-22.9-17-29.8-.5-3.2-3-5.8-6.2-6.3-.3 0-28.2-5.1-55.9-22.7-36.5-23.1-54.7-55.9-54.3-97.4.1-.6.2-1.1.2-1.8-.1-32.7-1.6-59.6-3-83.4-1.1-18.2-2-34-2-48.5 0-3.1 3.6-9.1 10.4-14.3 7.6-6 16.8-9.4 25.2-9.4m0-7.6c-22 0-43.3 18.6-43.3 31.2 0 33.6 4.9 74 5 131.9-.1 0-.2.1-.2.1v.3h-.2l.2 1.1C86.8 341.1 204.4 362 204.4 362s4.6 29.1 21.8 35.7c2.7 1 5 1.4 7 1.4 13.9 0 13.3-21.1 13.3-21.1s8 28.5 32.2 30.3c.8.1 1.5.1 2.2.1 23 0 3.4-31.2 24.3-38.4 23.7-8.1 41.9-28.7 53.1-49.3 1.9-3.5 4.9-10.1 8.4-18.2 14.5-3 38.3-13 62.5-65.2 14.9-32.1 10.4-57.8-3.9-57.8-.7 0-1.5.1-2.3.2-1.6.3-2.7.4-3.6.4-9.8 0 19.7-16.6 6-38-1.4-2.2-5.5-3.2-9.9-3.2-5.3 0-10.9 1.4-12.8 4 5-9.8 16.8-22.3 18.5-35.3 1.7-13.5 6.2-29.5-21-31.9-.8-.1-1.7-.1-2.6-.1-28.3 0-94.2 36-128.7 110.1-8.1-1.2-16.4-2.1-24.7-2.7-29.8-26.5-77.4-102.4-106.6-112-3.4-.9-7.2-1.4-11-1.4z"/><g><linearGradient id="SVGID_8_" gradientUnits="userSpaceOnUse" x1="290.25" y1="110.902" x2="290.25" y2="-20.998" gradientTransform="scale(1 -1) rotate(-5.101 -3010.447 67.567)"><stop offset=".234" stop-color="#fff"/><stop offset="1" stop-color="#bdbdbc"/></linearGradient><path d="M178.6 213.3c.3 1.7-.2 128 125.5 98.4 0 0 15 9.6 36.3 3.9 13.4-3.6 90.3-50.7-58.3-116.8-76.4-33.9-99.1-14.5-103.5 14.5z" fill="url(#SVGID_8_)"/></g><g><circle cx="127.2" cy="108.8" r="21.1" fill="#fff"/><path class="st9" d="M127.2 90.6c10.1 0 18.2 8.2 18.2 18.2s-8.2 18.2-18.2 18.2c-10.1 0-18.2-8.2-18.2-18.2s8.1-18.2 18.2-18.2m0-5.7c-13.2 0-24 10.7-24 24s10.7 24 24 24 24-10.7 24-24-10.8-24-24-24z"/><ellipse cx="126.6" cy="108.8" rx="5.7" ry="5.7" fill="#020203"/></g><g><path d="M56.7 123.2c3.2-.3 8-.4 14.6.7 13.6 2.2 22.3 4.5 22.3 4.5s1-5.9.5-12.3c-11.8-4.5-26.1-1.2-37.4 7.1z" fill="#eb5b28"/><g class="st14"><path class="st15" d="M82.8 117.9c2.6 0 5.2.3 7.6 1 0 1.8 0 3.4-.2 4.8-3.9-.9-10.2-2.2-18.3-3.5-.3 0-.7-.1-1-.2 4-1.4 8-2.1 11.9-2.1m0-3.8c-8.9 0-18.2 3.4-26.1 9.1 1.2-.1 2.7-.2 4.4-.2 2.7 0 6.1.2 10.2.9 13.6 2.2 22.3 4.5 22.3 4.5s1-5.9.5-12.3c-3.6-1.4-7.4-2-11.3-2z"/></g><g><path d="M77.3 102.1c-21.2 8.3-25 21.9-25 21.9s1.5-.6 4.5-.9c11.4-8.3 25.6-11.6 37.4-7.1-.7-9-4.1-18.9-16.9-13.9z" fill="#f7a52d"/><g class="st14"><path class="st15" d="M83.5 104.6c2.9 0 4.9 2.1 6 6.2-2.2-.4-4.4-.6-6.7-.6-6.5 0-13.3 1.6-19.6 4.6 3.4-3.1 8.3-6.5 15.4-9.2 1.9-.7 3.5-1 4.9-1m0-3.8c-1.8 0-3.8.4-6.2 1.3-21.2 8.3-25 21.9-25 21.9s1.5-.6 4.5-.9c7.9-5.8 17.2-9.1 26.1-9.1 3.9 0 7.7.6 11.3 2-.6-7.3-2.9-15.2-10.7-15.2z"/></g></g></g><g><linearGradient id="SVGID_9_" gradientUnits="userSpaceOnUse" x1="99.567" y1="145.985" x2="129.798" y2="83.136" gradientTransform="scale(1 -1) rotate(-8.685 -1673.711 92.121)"><stop offset=".456" stop-color="#e84145"/><stop offset=".56" stop-color="#e84043"/><stop offset=".645" stop-color="#e83c3e"/><stop offset=".723" stop-color="#d83639"/><stop offset=".797" stop-color="#c13033"/><stop offset=".869" stop-color="#a2282a"/><stop offset=".937" stop-color="#7d1e21"/><stop offset=".997" stop-color="#551517"/></linearGradient><path d="M103.3 172c-4.4 0-5.6-3.7-5.8-4.4-.3-1-2.7-6.7-12.4-6.7-1 0-2 .1-3.1.2h-.2c-.6 0-1.3-.1-1.8-1.4-1.4-3.1-.5-9.3 3.4-13.8 2.9-3.3 4.3-7.1 4-10.9-.2-1.9-.7-3.5-1.4-5 3.5.5 8.8 1.8 17 5.2 8.6 3.6 13 14.3 12.8 22.5-.1 3.2-1 10.9-8 13.4-1.7.6-3.2.9-4.5.9z" fill="url(#SVGID_9_)"/><path class="st3" d="M91.2 134.9c2.7.8 6.1 1.9 10.3 3.7 7 2.9 10.6 11.9 10.4 18.9-.1 3-.9 8.3-5.4 9.9-1.5.5-2.5.6-3.1.6-.5 0-1.6 0-2.1-1.6v-.1l-.2-.6c-1.5-4.1-6.6-8.9-15.8-8.9-.6 0-1.3 0-2 .1-.2-1.9.4-5.6 3.1-8.8 4.2-4.8 5-9.8 4.8-13.2m-7.9-9c-3.3 0-4.3.9-4.3.9s9.3 7.7 1.6 16.5c-7.5 8.6-6.2 21.5 1.1 21.5h.8c1-.1 1.9-.2 2.7-.2 7.3 0 8.7 3.9 8.7 3.9s1.9 7.2 9.5 7.2c1.6 0 3.5-.3 5.7-1.1 16.5-6 12.4-35.9-4.6-43-11.1-4.6-17.6-5.7-21.2-5.7z"/></g></g><use xlink:href="#SVGID_1_" overflow="visible" fill="none" stroke="#fff" stroke-width="5.62" stroke-miterlimit="10"/></svg>
