<svg xmlns="http://www.w3.org/2000/svg" viewBox="0 0 256 256"><style>.st5{fill:#f9c5aa}</style><path d="M230.3 140.3c0 62.2-50.5 112.7-112.7 112.7-15.3 0-29.8-3-43.1-8.5-36.3-15-63-48.5-68.5-88.7-.7-5.1-1.1-10.2-1.1-15.5 0-62.2 50.5-112.7 112.7-112.7s112.7 50.5 112.7 112.7z" fill="#877ab8"/><path d="M117.6 27.6c-6 0-11.8.5-17.5 1.4 53.9 8.4 95.2 55.1 95.2 111.3 0 56.3-41.3 102.9-95.2 111.3 5.7.9 11.6 1.4 17.5 1.4 62.2 0 112.7-50.5 112.7-112.7S179.8 27.6 117.6 27.6z" fill="#6e6eb1"/><path d="M244.4 132L180 174.6c-4.6 3-10.1 4.2-15.6 3.4-5.4-.9-11 .3-15.6 3.4l-8.6 5.7L92 116l11.8-51.1c.9-4 1.4-8 1.4-12 0-10.4-3-20.7-8.9-29.5-1.4-2.2-2.1-4.6-2.1-7 0-4.1 2-8.2 5.7-10.6 5-3.3 11.6-2.7 15.9 1.5l7.7 7.4c8.8 8.5 15.5 18.9 19.8 30.3l4.2 11.2 42.8-28.3c6.8-4.5 16.1-2.5 20.4 4.5 4.2 6.7 2 15.7-4.6 20-.1.1-.1.1-.1.2s.1.1.2.1c1.7-.7 3.5-1 5.2-1 2.8 0 5.6.8 8 2.3 1.6 1.1 3.1 2.5 4.2 4.2 2.2 3.3 2.9 7.3 2.1 10.9-1.1 5.7-5.3 8.7-6.1 9.2-.1.1-.2.3-.1.4.1.1.3.2.4.1 1.2-.3 2.4-.4 3.5-.4 2.9 0 5.8.8 8.2 2.4 1.7 1.1 3.1 2.5 4.3 4.2 4.4 6.7 2.6 15.8-4.1 20.2-.2.1-.3.2-.5.3-.1.1-.1.2-.1.3l.1.1c.1.1.2.1.3 0 4.2-1.4 8.7-.8 12.4 1.6 1.7 1.1 3.2 2.5 4.4 4.3 4.5 6.7 2.7 15.8-4 20.2z" fill="#fcd7bd"/><path d="M140.9 200.6l-27.1 18-39.2 26c-36.3-15-63-48.5-68.5-88.7l45.5-30.1 27.7-18.3c3.2-2.1 7.5-1.2 9.6 2l54.1 81.6c1.9 3 1 7.3-2.1 9.5z" fill="#8ed3f6"/><path d="M140.9 200.6l-27.1 18-62.2-92.8 27.7-18.3c3.2-2.1 7.5-1.2 9.6 2l54.1 81.6c1.9 3 1 7.3-2.1 9.5z" fill="#7ac3ed"/><path class="st5" d="M219.4 54L198 65.4c-3 1.6-6.8.8-8.8-2l16.9-10.9c0 .1.1.1.2.1 1.7-.7 3.5-1 5.2-1 2.8 0 5.6.8 7.9 2.4zM231.8 80.8L210.9 92c-3 1.6-6.8.8-8.8-2L219 79.1l.7-.3c.1.1.3.2.4.1 1.2-.3 2.4-.4 3.5-.4 2.9-.1 5.8.7 8.2 2.3zM244.1 107.5l-18.4 9.9c-3 1.6-6.8.8-8.8-2l14.6-9.5c.1.1.2.1.3 0 4.1-1.5 8.7-.8 12.3 1.6z"/></svg>
