<svg xmlns="http://www.w3.org/2000/svg" viewBox="0 0 256 256"><style>.st1{fill:#be1622}</style><linearGradient id="SVGID_1_" gradientUnits="userSpaceOnUse" x1="128.353" y1="4.489" x2="128.353" y2="251.24"><stop offset="0" stop-color="#eb5e25"/><stop offset="1" stop-color="#d60b52"/></linearGradient><path d="M251.7 78.6c0-40.9-33.2-74.1-74.1-74.1H79.1C38.2 4.5 5 37.7 5 78.6v98.5c0 15.7 4.9 30.2 13.1 42.1v-40.3h81.3v72.3H79.1h98.5-26.1v-97.6h81.3v73c11.8-13.1 18.9-30.5 18.9-49.5V78.6z" fill="url(#SVGID_1_)"/><path class="st1" d="M99.4 178.9H18.1v40.3c13.4 19.3 35.7 32 61 32h20.3v-72.3zM151.5 153.6v97.6h26.1c21.9 0 41.6-9.5 55.2-24.7v-73h-81.3z"/><path fill="#fff" d="M114.2 94.5L83.8 64l17-17 13.4 13.4 34.7-34.7 17.1 17z"/><g><path fill="#e8edf6" d="M148.9 25.7l-23.5 23.5v34.1L166 42.7z"/></g><g><path fill="#fcc10c" d="M84.8 115.7h81.3v135.6H84.8z"/></g><g><path fill="#f3941b" d="M125.4 115.7h40.7v135.6h-40.7z"/></g></svg>
