<?xml version="1.0" encoding="utf-8"?>
<!-- Generator: Adobe Illustrator 22.0.1, SVG Export Plug-In . SVG Version: 6.00 Build 0)  -->
<svg version="1.1" id="Livello_1" xmlns="http://www.w3.org/2000/svg" xmlns:xlink="http://www.w3.org/1999/xlink" x="0px" y="0px"
	 viewBox="0 0 256 256" style="enable-background:new 0 0 256 256;" xml:space="preserve">
<style type="text/css">
	.st0{opacity:0.3;clip-path:url(#SVGID_3_);fill:#FFFFFF;}
	.st1{clip-path:url(#SVGID_3_);}
	.st2{fill:url(#SVGID_4_);}
	.st3{fill:#C1292E;}
	.st4{fill:#F39323;stroke:#8C633A;stroke-width:6.9034;stroke-linecap:round;stroke-linejoin:round;stroke-miterlimit:10;}
	.st5{fill:#F39323;stroke:#8C633A;stroke-width:7.0825;stroke-linecap:round;stroke-linejoin:round;stroke-miterlimit:10;}
	.st6{fill:url(#SVGID_5_);}
	.st7{fill:url(#SVGID_6_);}
	.st8{fill:url(#SVGID_7_);}
	.st9{fill:#9A9999;}
	.st10{fill:url(#SVGID_8_);}
	.st11{fill:#FFFFFF;}
	.st12{fill:#020203;}
	.st13{fill:#EB5B28;}
	.st14{opacity:0.2;}
	.st15{fill:#8C633A;}
	.st16{fill:#F7A52D;}
	.st17{fill:url(#SVGID_9_);}
</style>
<g>
	<defs>
		<path id="SVGID_1_" d="M218.6,3.7H37.4C18.8,3.7,3.7,18.8,3.7,37.4v146.7v34.5c0,18.5,15.2,33.7,33.7,33.7h181.2
			c18.5,0,33.7-15.2,33.7-33.7V37.4C252.3,18.8,237.2,3.7,218.6,3.7z"/>
	</defs>
	<linearGradient id="SVGID_2_" gradientUnits="userSpaceOnUse" x1="128" y1="3.6667" x2="128" y2="252.3333">
		<stop  offset="0" style="stop-color:#8CD3F6"/>
		<stop  offset="1" style="stop-color:#009FE3"/>
	</linearGradient>
	<use xlink:href="#SVGID_1_"  style="overflow:visible;fill:url(#SVGID_2_);"/>
	<clipPath id="SVGID_3_">
		<use xlink:href="#SVGID_1_"  style="overflow:visible;"/>
	</clipPath>
	<polygon class="st0" points="298.3,178 227.4,107.7 196.8,142.8 122.6,27 79,115.5 43.8,77.1 -6.2,187.1 0.3,254.2 252.3,277.5 	
		"/>
	<g id="Layer_1" class="st1">
		<g>
			
				<linearGradient id="SVGID_4_" gradientUnits="userSpaceOnUse" x1="114.6794" y1="217.5712" x2="117.7974" y2="170.019" gradientTransform="matrix(1 0 0 -1 0 258)">
				<stop  offset="0.4563" style="stop-color:#E84145"/>
				<stop  offset="0.56" style="stop-color:#E84043"/>
				<stop  offset="0.6449" style="stop-color:#E83C3E"/>
				<stop  offset="0.7232" style="stop-color:#D83639"/>
				<stop  offset="0.7975" style="stop-color:#C13033"/>
				<stop  offset="0.869" style="stop-color:#A2282A"/>
				<stop  offset="0.9374" style="stop-color:#7D1E21"/>
				<stop  offset="0.9973" style="stop-color:#551517"/>
			</linearGradient>
			<path class="st2" d="M86.9,92.4c-2,0-7.9-0.3-9.9-3.4c-1.6-2.4-0.4-6.6,1-9.6c1-2.2,1.8-2.5,3.7-3c3.4-1,6.8-2.6,8.3-9
				c1.9-8,8.6-14.6,14.9-14.6c0.5,0,1.1,0,1.6,0.2c5.7,1.1,8,2.8,10,4.3c2,1.4,4.2,3.1,8.2,3.1c0.7,0,1.4,0,2.3-0.2
				c5.4-0.7,8.2-3.4,10.2-5.4c1.9-1.8,2.9-2.8,5.8-2.8c0.5,0,1.1,0,1.8,0.1c3.5,0.4,6.5,2.1,8.8,5c3.5,4.4,5.1,11.1,4.2,18
				c-0.9,7.7-1.8,11.5-2.3,13.3c-0.4-0.3-0.8-0.7-1.2-1.1c-3.2-2.9-8-7.4-15-7.4c-1.9,0-3.8,0.3-5.6,1c-2.1,0.7-4.1,1-6.2,1
				c-3.2,0-6.1-0.8-9.1-1.5c-3.1-0.8-6.2-1.6-9.7-1.6C101.1,78.8,94.3,83,86.9,92.4z"/>
			<path class="st3" d="M143.1,55.8c0.4,0,0.8,0,1.3,0.1c2.5,0.3,4.6,1.5,6.2,3.6c2.8,3.6,4.1,9.4,3.4,15.2
				c-0.3,2.7-0.6,4.9-0.9,6.6c-3.4-2.6-7.9-5.1-13.8-5.1c-2.2,0-4.6,0.4-6.9,1.1c-1.7,0.6-3.3,0.8-5,0.8c-2.7,0-5.4-0.7-8.2-1.4
				c-3.2-0.8-6.7-1.7-10.6-1.7c-8.5,0-15.9,4.2-23.6,13.5c-2.9-0.3-4.6-1.1-5-1.6c-0.2-0.3-0.4-2.1,1.3-5.9c0.2-0.3,0.3-0.5,0.3-0.6
				c0.2-0.1,0.6-0.2,0.9-0.3c2.9-0.8,8.8-2.6,11-11.8c1.6-6.9,7.2-11.6,11.2-11.6c0.3,0,0.6,0,0.9,0.1c4.8,0.9,6.6,2.2,8.5,3.6
				c2.2,1.6,5.3,3.9,10.5,3.9c0.9,0,1.8-0.1,2.8-0.2c6.7-0.9,10.1-4.3,12.4-6.5C141.7,55.9,141.8,55.8,143.1,55.8 M143.1,48.2
				c-8.6,0-7.8,7.2-16.5,8.3c-0.6,0.1-1.3,0.1-1.8,0.1c-6.1,0-5.6-5.1-17.5-7.4c-0.8-0.2-1.6-0.2-2.4-0.2c-8.2,0-16.4,8-18.6,17.5
				C84,75.8,78,69.8,74.5,77.9c-7.4,16.8,7.4,18.2,12.6,18.2c1.1,0,1.8-0.1,1.8-0.1c8-10.8,14.2-13.6,19.9-13.6
				c6.1,0,11.7,3.1,18.8,3.1c2.3,0,4.8-0.3,7.4-1.2c1.6-0.5,3.1-0.8,4.5-0.8c8.8,0,13.6,9.4,17,9.4c2.2,0,3.7-4.1,5.3-17.6
				c1.5-12.6-4.3-25.8-16.3-27.3C144.6,48.3,143.8,48.2,143.1,48.2L143.1,48.2z"/>
		</g>
		<path class="st4" d="M228.3,361.7c0,0-8,33.3-11.6,45.2c-3.6,11.6-25,21.5-44.8,20.6c-14.1-0.7-19.9,1.2-21.9,9.8
			c-2.1,8.7,1.6,6.2,1.6,6.2s6.6-3.9,11-3.6c8.5,0.7,6.2,2.7,14.9,1.3c8.1-1.3,7.6-3.1,7.6-3.1s-5.1,6.5-1.7,12.7
			c3.3,6.2,4.3,5.1,4.3,5.1s0.4-8.9,9-11c8.6-2.1,12.3-6.2,12.3-6.2s12.3-5.3,19,0.9c6.7,6.2,10.7,6.3,15,5.8
			c4.3-0.5,12.5,7.8,12.5,7.8s3.4-13.2-10-18.8c-9.4-4-15.3-17.7-12.2-28.8c3.1-11.2,16.1-40,16.1-40L228.3,361.7z"/>
		<path class="st5" d="M267.1,386.5c0,0-8.3,33.5-12.2,45.4c-3.7,11.6-26.2,21.6-46.9,20.7c-14.8-0.7-20.8,1.2-23,9.9
			c-2.1,8.7,1.6,6.3,1.6,6.3s6.9-4,11.5-3.6c8.9,0.7,6.6,2.7,15.7,1.3c8.5-1.3,8-3.1,8-3.1s-5.3,6.6-1.8,12.8
			c3.5,6.2,4.5,5.2,4.5,5.2s0.4-8.9,9.4-11c9-2.1,12.9-6.3,12.9-6.3s12.9-5.3,19.9,0.9c7,6.2,11.2,6.4,15.7,5.8
			c4.5-0.5,13.1,7.8,13.1,7.8s3.5-13.3-10.4-18.9c-9.8-4-19.4-15.8-16.2-27s20.3-42.2,20.3-42.2L267.1,386.5z"/>
		<g>
			
				<linearGradient id="SVGID_5_" gradientUnits="userSpaceOnUse" x1="240.7619" y1="73.7262" x2="240.7619" y2="-139.1557" gradientTransform="matrix(1 0 0 -1 0 258)">
				<stop  offset="0.2337" style="stop-color:#FFFFFF"/>
				<stop  offset="1" style="stop-color:#BDBDBC"/>
			</linearGradient>
			<path class="st6" d="M393.3,232.6c-0.1-0.1-57.4-31.8-90.8-39.4c-38.3-12.1-100.2-13.1-125.8-8.2c0,0-87.5,47.1-88.6,47.7
				c-2.5,108.3,116.4,129.3,116.4,129.3s4.6,29.1,21.8,35.7c21,8,20.3-19.7,20.3-19.7s8,28.5,32.2,30.3c26.5,2.1,5-30.9,26.6-38.4
				c23.7-8.1,41.9-28.7,53.1-49.3C366.6,306,395.4,234.1,393.3,232.6z"/>
		</g>
		<g>
			
				<linearGradient id="SVGID_6_" gradientUnits="userSpaceOnUse" x1="124.1039" y1="190.4472" x2="190.2999" y2="-29.1454" gradientTransform="matrix(1 0 0 -1 0 258)">
				<stop  offset="0.2337" style="stop-color:#FFFFFF"/>
				<stop  offset="1" style="stop-color:#BDBDBC"/>
			</linearGradient>
			<path class="st7" d="M137.9,71.3c-25.4-8.3-54.6,14.6-54.6,29.5c0,33.7,4.9,74.2,5,132.2c-0.2,0-0.3,0.1-0.5,0.1l0.5,2.1
				c0,4.3,0.2,8.7,0.4,13.3c0,0,1.6,5.8,2.6,9.2c1.4,5.2,8.9,4.9,9.8-0.4c0-0.1,0-0.2,0-0.3c0.6-3.8,5.2-5.4,8.1-3
				c2.7,2.3,5.9,4.6,8.8,6.5c3.5,2.4,8.2-0.3,7.9-4.5c-0.2-2.7-0.4-5.5-0.6-8.1c-0.3-4,3.8-6.7,7.4-4.8c7.1,3.7,15.8,7.1,22.2,10
				c3.3,1.5,7.1-0.9,7.1-4.6c0-4.2-0.1-9-0.2-12.9c0-3.7,3.8-6.2,7.2-4.6c6.5,3,15.1,6.2,21.9,8.9c3.8,1.5,7.7-2,6.7-6
				c-1-3.7-2-7.4-2.8-10.5c-1-3.7,2.4-7.1,6.1-6.2c8.3,2.1,15.8,3.5,22.6,4.5c3.4,0.5,6.2-2.5,5.7-5.8c-1.3-8,22.4-26.8,21.2-27.7
				C221.5,167.9,169.2,81.6,137.9,71.3z"/>
		</g>
		<g>
			
				<linearGradient id="SVGID_7_" gradientUnits="userSpaceOnUse" x1="261.1193" y1="67.8127" x2="438.623" y2="67.8127" gradientTransform="matrix(1 0 0 -1 0 258)">
				<stop  offset="0.2337" style="stop-color:#FFFFFF"/>
				<stop  offset="1" style="stop-color:#BDBDBC"/>
			</linearGradient>
			<path class="st8" d="M400.4,76c27.2,2.4,22.7,18.4,21,31.9s-14.4,26.4-19,36.4c1.5-5.7,19.9-7.2,23.3-2
				c14.9,23.4-21.4,41-2.4,37.6c16.1-2.8,21.8,23.8,6.2,57.6c-30.4,65.7-60.2,64.7-71.7,66.7c-10.4,1.8-20.8-4.2-27-12
				c-11.5-14.2-52.3-16.6-63.5-31.3c-9.4-12.2-6.3-55.8,0-70.3C301.8,111,373.1,73.6,400.4,76z"/>
		</g>
		<path class="st9" d="M126.6,77.2c3.1,0,6.1,0.5,9,1.4c15.8,5.2,40.7,36.1,62.6,63.4c15,18.7,29.3,36.4,41.3,47.1
			c1.3,1.1,2.8,1.8,4.5,1.9c8.3,0.6,16.5,1.5,24.1,2.6c0.4,0,0.7,0.1,1.1,0.1c2.9,0,5.6-1.7,6.9-4.4
			c32.7-70.4,95.7-105.8,121.7-105.8c0.6,0,1.3,0,1.9,0.1c7,0.6,11.8,2.3,13.8,4.8c2.5,3.1,1.6,9.3,0.8,15.4
			c-0.2,1.1-0.3,2.1-0.4,3.2c-0.9,7-6.2,14.9-10.9,21.8c-2.6,3.8-5,7.4-6.8,10.9c-1.8,3.5-0.6,7.9,2.8,10c1.3,0.8,2.6,1.1,4,1.1
			c2.2,0,4.4-1,5.9-2.7c0.8-0.5,3.5-1.3,6.9-1.3c2,0,3.3,0.3,3.9,0.5c4.6,8.2,0.4,15-5.2,22.5c-2.9,3.9-6.2,8.3-3.6,13.4
			c0.9,1.8,3.2,4.8,8.8,4.8c1.3,0,2.9-0.2,5-0.5c0.3-0.1,0.6-0.1,1-0.1c0.6,0,1.8,0,3,2c4.3,6.7,3.6,24.3-6,45
			c-25.2,54.4-49.2,59.4-57.1,61c-2.4,0.5-4.5,2.2-5.5,4.4c-4.6,10.6-7,15.4-8.1,17.5c-12.3,22.6-30.2,39.3-48.9,45.7
			c-15,5.1-15.9,18.8-16.5,27.9c-0.7,10.2-1.2,10.2-5.4,10.2c-0.5,0-1.1,0-1.7-0.1c-18.4-1.4-25.4-24.6-25.4-24.8
			c-1-3.3-4-5.5-7.3-5.5c-0.4,0-0.8,0-1.1,0.1c-3.8,0.6-6.6,3.9-6.5,7.7c0.1,3.6-0.9,10-3.3,12.4c-0.5,0.5-1.1,0.9-2.4,0.9
			c-1.1,0-2.6-0.3-4.3-1c-10.7-4.1-15.9-22.9-17-29.8c-0.5-3.2-3-5.8-6.2-6.3c-0.3,0-28.2-5.1-55.9-22.7
			c-36.5-23.1-54.7-55.9-54.3-97.4l0,0c0.1-0.6,0.2-1.1,0.2-1.8c-0.1-32.7-1.6-59.6-3-83.4c-1.1-18.2-2-34-2-48.5
			c0-3.1,3.6-9.1,10.4-14.3C109,80.6,118.2,77.2,126.6,77.2 M126.6,69.6c-22,0-43.3,18.6-43.3,31.2c0,33.6,4.9,74,5,131.9
			c-0.1,0-0.2,0.1-0.2,0.1c0,0.1,0,0.2,0,0.3c-0.1,0-0.2,0-0.2,0l0.2,1.1c-1.3,106.9,116.3,127.8,116.3,127.8s4.6,29.1,21.8,35.7
			c2.7,1,5,1.4,7,1.4c13.9,0,13.3-21.1,13.3-21.1s8,28.5,32.2,30.3c0.8,0.1,1.5,0.1,2.2,0.1c23,0,3.4-31.2,24.3-38.4
			c23.7-8.1,41.9-28.7,53.1-49.3c1.9-3.5,4.9-10.1,8.4-18.2c14.5-3,38.3-13,62.5-65.2c14.9-32.1,10.4-57.8-3.9-57.8
			c-0.7,0-1.5,0.1-2.3,0.2c-1.6,0.3-2.7,0.4-3.6,0.4c-9.8,0,19.7-16.6,6-38c-1.4-2.2-5.5-3.2-9.9-3.2c-5.3,0-10.9,1.4-12.8,4
			c5-9.8,16.8-22.3,18.5-35.3c1.7-13.5,6.2-29.5-21-31.9c-0.8-0.1-1.7-0.1-2.6-0.1c-28.3,0-94.2,36-128.7,110.1
			c-8.1-1.2-16.4-2.1-24.7-2.7c-29.8-26.5-77.4-102.4-106.6-112C134.2,70.1,130.4,69.6,126.6,69.6L126.6,69.6z"/>
		<g>
			
				<linearGradient id="SVGID_8_" gradientUnits="userSpaceOnUse" x1="290.2498" y1="110.9018" x2="290.2498" y2="-20.9978" gradientTransform="matrix(0.996 8.890000e-02 8.890000e-02 -0.996 -17.9269 267.3612)">
				<stop  offset="0.2337" style="stop-color:#FFFFFF"/>
				<stop  offset="1" style="stop-color:#BDBDBC"/>
			</linearGradient>
			<path class="st10" d="M178.6,213.3c0.3,1.7-0.2,128,125.5,98.4c0,0,15,9.6,36.3,3.9c13.4-3.6,90.3-50.7-58.3-116.8
				C205.7,164.9,183,184.3,178.6,213.3z"/>
		</g>
		<g>
			<g>
				<circle class="st11" cx="127.2" cy="108.8" r="21.1"/>
				<path class="st9" d="M127.2,90.6c10.1,0,18.2,8.2,18.2,18.2s-8.2,18.2-18.2,18.2c-10.1,0-18.2-8.2-18.2-18.2
					S117.1,90.6,127.2,90.6 M127.2,84.9c-13.2,0-24,10.7-24,24s10.7,24,24,24s24-10.7,24-24S140.4,84.9,127.2,84.9L127.2,84.9z"/>
			</g>
			<ellipse class="st12" cx="126.6" cy="108.8" rx="5.7" ry="5.7"/>
		</g>
		<g>
			<g>
				<path class="st13" d="M56.7,123.2c3.2-0.3,8-0.4,14.6,0.7c13.6,2.2,22.3,4.5,22.3,4.5s1-5.9,0.5-12.3
					C82.3,111.6,68,114.9,56.7,123.2z"/>
				<g class="st14">
					<path class="st15" d="M82.8,117.9c2.6,0,5.2,0.3,7.6,1c0,1.8,0,3.4-0.2,4.8c-3.9-0.9-10.2-2.2-18.3-3.5c-0.3,0-0.7-0.1-1-0.2
						C74.9,118.6,78.9,117.9,82.8,117.9 M82.8,114.1c-8.9,0-18.2,3.4-26.1,9.1c1.2-0.1,2.7-0.2,4.4-0.2c2.7,0,6.1,0.2,10.2,0.9
						c13.6,2.2,22.3,4.5,22.3,4.5s1-5.9,0.5-12.3C90.5,114.7,86.7,114.1,82.8,114.1L82.8,114.1z"/>
				</g>
			</g>
			<g>
				<path class="st16" d="M77.3,102.1c-21.2,8.3-25,21.9-25,21.9s1.5-0.6,4.5-0.9c11.4-8.3,25.6-11.6,37.4-7.1
					C93.5,107,90.1,97.1,77.3,102.1z"/>
				<g class="st14">
					<path class="st15" d="M83.5,104.6c2.9,0,4.9,2.1,6,6.2c-2.2-0.4-4.4-0.6-6.7-0.6c-6.5,0-13.3,1.6-19.6,4.6
						c3.4-3.1,8.3-6.5,15.4-9.2C80.5,104.9,82.1,104.6,83.5,104.6 M83.5,100.8c-1.8,0-3.8,0.4-6.2,1.3c-21.2,8.3-25,21.9-25,21.9
						s1.5-0.6,4.5-0.9c7.9-5.8,17.2-9.1,26.1-9.1c3.9,0,7.7,0.6,11.3,2C93.6,108.7,91.3,100.8,83.5,100.8L83.5,100.8z"/>
				</g>
			</g>
		</g>
		<g>
			
				<linearGradient id="SVGID_9_" gradientUnits="userSpaceOnUse" x1="99.5668" y1="145.9848" x2="129.7979" y2="83.1357" gradientTransform="matrix(0.9885 0.151 0.151 -0.9885 -33.1021 251.6741)">
				<stop  offset="0.4563" style="stop-color:#E84145"/>
				<stop  offset="0.56" style="stop-color:#E84043"/>
				<stop  offset="0.6449" style="stop-color:#E83C3E"/>
				<stop  offset="0.7232" style="stop-color:#D83639"/>
				<stop  offset="0.7975" style="stop-color:#C13033"/>
				<stop  offset="0.869" style="stop-color:#A2282A"/>
				<stop  offset="0.9374" style="stop-color:#7D1E21"/>
				<stop  offset="0.9973" style="stop-color:#551517"/>
			</linearGradient>
			<path class="st17" d="M103.3,172c-4.4,0-5.6-3.7-5.8-4.4c-0.3-1-2.7-6.7-12.4-6.7c-1,0-2,0.1-3.1,0.2c-0.1,0-0.2,0-0.2,0
				c-0.6,0-1.3-0.1-1.8-1.4c-1.4-3.1-0.5-9.3,3.4-13.8c2.9-3.3,4.3-7.1,4-10.9c-0.2-1.9-0.7-3.5-1.4-5c3.5,0.5,8.8,1.8,17,5.2
				c8.6,3.6,13,14.3,12.8,22.5c-0.1,3.2-1,10.9-8,13.4C106.1,171.7,104.6,172,103.3,172L103.3,172z"/>
			<path class="st3" d="M91.2,134.9c2.7,0.8,6.1,1.9,10.3,3.7c7,2.9,10.6,11.9,10.4,18.9c-0.1,3-0.9,8.3-5.4,9.9
				c-1.5,0.5-2.5,0.6-3.1,0.6c-0.5,0-1.6,0-2.1-1.6v-0.1l-0.2-0.6c-1.5-4.1-6.6-8.9-15.8-8.9c-0.6,0-1.3,0-2,0.1
				c-0.2-1.9,0.4-5.6,3.1-8.8C90.6,143.3,91.4,138.3,91.2,134.9 M83.3,125.9c-3.3,0-4.3,0.9-4.3,0.9s9.3,7.7,1.6,16.5
				c-7.5,8.6-6.2,21.5,1.1,21.5c0.2,0,0.5,0,0.8,0c1-0.1,1.9-0.2,2.7-0.2c7.3,0,8.7,3.9,8.7,3.9s1.9,7.2,9.5,7.2
				c1.6,0,3.5-0.3,5.7-1.1c16.5-6,12.4-35.9-4.6-43C93.4,127,86.9,125.9,83.3,125.9L83.3,125.9z"/>
		</g>
	</g>
	<use xlink:href="#SVGID_1_"  style="overflow:visible;fill:none;stroke:#FFFFFF;stroke-width:5.6196;stroke-miterlimit:10;"/>
</g>
</svg>
