<svg height="480pt" viewBox="0 0 480 480.00078" width="480pt" xmlns="http://www.w3.org/2000/svg"><path d="m404.558594 121.121094c-13.75-61.789063-66.242188-107.347656-129.347656-112.277344-63.109376-4.925781-122.03125 31.933594-145.210938 90.835938-44.757812-12.652344-92.148438 8.601562-112.46875 50.441406-20.324219 41.839844-7.726562 92.226562 29.894531 119.582031 37.617188 27.355469 89.4375 23.804687 122.972657-8.421875 50.863281 43.765625 125.265624 46.421875 179.121093 6.398438 27.480469 17.503906 62.832031 16.59375 89.375-2.300782 26.542969-18.894531 38.976563-52 31.429688-83.695312-7.542969-31.695313-33.554688-55.652344-65.765625-60.5625zm0 0" fill="#4891d3"/><path d="m392 120c-27.210938 0-52.558594 13.835938-67.28125 36.722656 31.660156-20.363281 73.230469-15.902344 99.84375 10.714844 26.617188 26.617188 31.078125 68.183594 10.71875 99.84375 29.851562-19.203125 43.476562-55.78125 33.472656-89.835938-10.007812-34.054687-41.257812-57.441406-76.753906-57.445312zm0 0" fill="#57b7eb"/><path d="m363.441406 125.359375c9.105469-3.539063 18.789063-5.359375 28.558594-5.359375 4.210938.007812 8.414062.378906 12.558594 1.121094-12.238282-55.300782-55.753906-98.289063-111.199219-109.851563-55.445313-11.558593-112.519531 10.453125-145.839844 56.25 35.128907-25.464843 79.863281-33.738281 121.773438-22.515625 41.910156 11.222656 76.527343 40.742188 94.226562 80.355469zm0 0" fill="#57b7eb"/><path d="m88 128c30.058594.023438 58.371094 14.121094 76.5 38.097656 18.132812 23.972656 23.984375 55.054688 15.820312 83.984375 23.585938-30.714843 26.40625-72.59375 7.152344-106.195312-19.253906-33.601563-56.808594-52.34375-95.234375-47.527344s-70.195312 32.25-80.558593 69.5625c18.128906-23.859375 46.355468-37.882813 76.320312-37.921875zm0 0" fill="#57b7eb"/><path d="m384 280c0 79.53125-64.46875 144-144 144-79.527344 0-144-64.46875-144-144 0-79.527344 64.472656-144 144-144 79.53125 0 144 64.472656 144 144zm0 0" fill="#f9e109"/><path d="m264 376c-45.085938-.03125-87.554688-21.179688-114.75-57.140625-27.195312-35.964844-35.976562-82.585937-23.730469-125.980469-35.378906 46.074219-39.609375 108.894532-10.730469 159.292969 28.882813 50.402344 85.214844 78.515625 142.855469 71.292969 57.636719-7.226563 105.289063-48.375 120.835938-104.34375-27.191407 35.785156-69.535157 56.824218-114.480469 56.878906zm0 0" fill="#fcbc04"/><path d="m280 217.761719-40 40-39.601562-40c-6.25-6.253907-16.386719-6.253907-22.636719 0-6.253907 6.25-6.253907 16.386719 0 22.640625l40 40-40 40c-6.253907 6.25-6.253907 16.386718 0 22.636718 6.25 6.253907 16.386719 6.253907 22.636719 0l39.601562-40 40 40c6.363281 6.144532 16.5 5.964844 22.640625-.398437s5.960937-16.5-.398437-22.640625l-40-40 40-40c4.347656-6.355469 3.550781-14.902344-1.894532-20.347656-5.441406-5.445313-13.992187-6.238282-20.347656-1.890625zm0 0" fill="#7ab92d"/><path d="m104 424c0 26.511719-21.488281 48-48 48-26.507812 0-48-21.488281-48-48 0-26.507812 21.492188-48 48-48 26.511719 0 48 21.492188 48 48zm0 0" fill="#a1d51c"/><path d="m72 456c-17.339844-.011719-33.324219-9.378906-41.816406-24.5-8.488282-15.121094-8.160156-33.648438.855468-48.460938-17.054687 10.324219-25.949218 30.117188-22.351562 49.726563s18.941406 34.949219 38.550781 38.550781c19.605469 3.597656 39.398438-5.300781 49.722657-22.355468-7.515626 4.59375-16.152344 7.027343-24.960938 7.039062zm0 0" fill="#7ab92d"/><g fill="#39519d"><path d="m314.878906 229.121094c.039063-6.378906-2.464844-12.511719-6.957031-17.039063-9.535156-9.03125-24.46875-9.03125-34 0l-33.921875 34-33.917969-34c-9.535156-9.03125-24.46875-9.03125-34 0-4.519531 4.503907-7.0625 10.617188-7.0625 17 0 6.378907 2.542969 12.496094 7.0625 17l19.917969 19.917969c3.136719 3.136719 8.222656 3.136719 11.359375 0s3.136719-8.222656 0-11.359375l-19.917969-19.917969c-3.101562-3.121094-3.101562-8.160156 0-11.28125 3.121094-3.101562 8.160156-3.101562 11.277344 0l39.601562 40c1.503907 1.515625 3.546876 2.367188 5.679688 2.367188s4.179688-.851563 5.679688-2.367188l39.601562-40c3.121094-3.101562 8.160156-3.101562 11.277344 0 3.105468 3.121094 3.105468 8.160156 0 11.28125l-40 39.597656c-1.511719 1.503907-2.363282 3.546876-2.363282 5.679688s.851563 4.179688 2.363282 5.679688l40 39.601562c3.105468 3.121094 3.105468 8.160156 0 11.28125-3.117188 3.101562-8.15625 3.101562-11.277344 0l-39.601562-40c-1.5-1.515625-3.546876-2.367188-5.679688-2.367188s-4.175781.851563-5.679688 2.367188l-39.601562 40c-3.117188 3.101562-8.15625 3.101562-11.277344 0-3.101562-3.121094-3.101562-8.160156 0-11.28125l39.597656-39.601562c3.136719-3.136719 3.136719-8.222657 0-11.359376-3.136718-3.136718-8.222656-3.136718-11.359374 0l-39.597657 40c-4.519531 4.503907-7.0625 10.621094-7.0625 17 0 6.378907 2.542969 12.496094 7.0625 17 9.53125 9.03125 24.464844 9.03125 34 0l33.917969-34.398437 33.921875 34c9.386719 9.386719 24.609375 9.386719 34 0 9.386719-9.390625 9.386719-24.613281 0-34l-34-33.921875 34-33.917969c4.472656-4.511719 6.972656-10.609375 6.957031-16.960937zm0 0"/><path d="m64 344v-32c0-4.417969-3.582031-8-8-8s-8 3.582031-8 8v32c0 4.417969 3.582031 8 8 8s8-3.582031 8-8zm0 0"/><path d="m56 368c-30.925781 0-56 25.074219-56 56 0 30.929688 25.074219 56 56 56 30.929688 0 56-25.070312 56-56 0-30.925781-25.070312-56-56-56zm0 96c-22.089844 0-40-17.90625-40-40 0-22.089844 17.910156-40 40-40s40 17.910156 40 40c0 22.09375-17.910156 40-40 40zm0 0"/><path d="m440 376c0 4.417969-3.582031 8-8 8s-8-3.582031-8-8 3.582031-8 8-8 8 3.582031 8 8zm0 0"/><path d="m440 344v-40c0-4.417969-3.582031-8-8-8s-8 3.582031-8 8v40c0 4.417969 3.582031 8 8 8s8-3.582031 8-8zm0 0"/><path d="m72.960938 407.039062c-3.121094-3.101562-8.160157-3.101562-11.28125 0l-5.679688 5.683594-5.679688-5.683594c-3.175781-2.714843-7.90625-2.535156-10.859374.421876-2.957032 2.953124-3.140626 7.6875-.421876 10.859374l5.679688 5.679688-5.679688 5.679688c-3.101562 3.121093-3.101562 8.160156 0 11.28125 3.121094 3.101562 8.160157 3.101562 11.28125 0l5.679688-5.679688 5.679688 5.679688c3.121093 3.101562 8.160156 3.101562 11.28125 0 3.101562-3.121094 3.101562-8.160157 0-11.28125l-5.679688-5.679688 5.679688-5.679688c3.101562-3.121093 3.101562-8.160156 0-11.28125zm0 0"/><path d="m448.960938 402.320312c-3.121094-3.101562-8.160157-3.101562-11.28125 0l-5.679688 5.679688-5.679688-5.679688c-3.121093-3.101562-8.160156-3.101562-11.28125 0-1.511718 1.503907-2.363281 3.546876-2.363281 5.679688s.851563 4.179688 2.363281 5.679688l5.679688 5.601562-5.679688 5.679688c-3.136718 3.113281-3.152343 8.183593-.039062 11.320312 3.117188 3.136719 8.183594 3.15625 11.320312.039062l5.679688-5.679687 5.679688 5.679687c3.136718 3.117188 8.207031 3.097657 11.320312-.039062 3.117188-3.136719 3.097656-8.207031-.039062-11.320312l-5.679688-5.679688 5.679688-5.601562c1.515624-1.5 2.367187-3.546876 2.367187-5.679688s-.851563-4.175781-2.367187-5.679688zm0 0"/><path d="m176 464h-48c-4.417969 0-8 3.582031-8 8s3.582031 8 8 8h48c4.417969 0 8-3.582031 8-8s-3.582031-8-8-8zm0 0"/><path d="m240 448c-4.417969 0-8 3.582031-8 8v8h-16c-4.417969 0-8 3.582031-8 8s3.582031 8 8 8h24c4.417969 0 8-3.582031 8-8v-16c0-4.417969-3.582031-8-8-8zm0 0"/><path d="m392 408h-32c-4.417969 0-8 3.582031-8 8s3.582031 8 8 8h32c4.417969 0 8-3.582031 8-8s-3.582031-8-8-8zm0 0"/><path d="m411.199219 114.160156c-17.566407-66.988281-77.945313-113.816406-147.199219-114.160156-60.09375-.191406-114.589844 35.238281-138.800781 90.242188-6.964844-1.496094-14.074219-2.25-21.199219-2.242188-48.953125.136719-91.1875 34.394531-101.417969 82.269531s14.3125 96.402344 58.9375 116.53125c1.035157.441407 2.15625.660157 3.28125.640625 3.910157.175782 7.371094-2.503906 8.183594-6.332031.816406-3.824219-1.261719-7.679687-4.902344-9.109375-40.964843-19.492188-60.398437-66.929688-44.882812-109.558594s60.890625-66.476562 104.800781-55.082031c3.984375 1.152344 8.183594-.933594 9.679688-4.796875 20.132812-52.21875 70.355468-86.632812 126.320312-86.5625 63.742188.3125 118.824219 44.609375 132.800781 106.800781.714844 3.207031 3.316407 5.648438 6.558594 6.160157 34.914063 5.578124 60.613281 35.683593 60.640625 71.039062-.007812 31.808594-20.886719 59.84375-51.359375 68.960938-4.242187 1.257812-6.660156 5.71875-5.398437 9.960937 1.257812 4.242187 5.714843 6.65625 9.957031 5.398437 37.160156-11.296874 62.621093-45.484374 62.800781-84.320312.164062-41.25-28.503906-77.015625-68.800781-85.839844zm0 0"/><path d="m354.960938 367.121094c3.648437 2.425781 8.574218 1.460937 11.039062-2.160156 45.179688-66.5 30.765625-156.679688-32.894531-205.78125-63.664063-49.097657-154.546875-40.132813-207.390625 20.457031-52.839844 60.589843-49.359375 151.851562 7.941406 208.242187 57.304688 56.390625 148.609375 58.40625 208.34375 4.601563 3.269531-2.980469 3.503906-8.050781.519531-11.320313-2.980469-3.269531-8.050781-3.5-11.320312-.519531-53.433594 47.8125-134.855469 45.761719-185.8125-4.679687-50.960938-50.445313-53.839844-131.839844-6.574219-185.757813s128.339844-61.722656 185.019531-17.804687c56.679688 43.917968 69.375 124.367187 28.96875 183.601562-1.191406 1.761719-1.632812 3.921875-1.226562 6.007812.40625 2.085938 1.621093 3.925782 3.386719 5.113282zm0 0"/></g></svg>